<svg xmlns="http://www.w3.org/2000/svg" viewBox="-5 -5 270 270" height="40" width="40">
	<defs>
		<clipPath id="i">
			<path
					d="M174.524 108.516c0-3.963 1.487-7.568 3.921-10.319-.006.123-.018.244-.018.367 0 6.467 5.065 11.709 11.317 11.709 6.246 0 11.314-5.242 11.314-11.709 0-.42-.023-.835-.066-1.246 2.924 2.838 4.748 6.802 4.748 11.198 0 8.622-6.985 15.608-15.607 15.608-8.621 0-15.609-6.986-15.609-15.608"/>
		</clipPath>
		<clipPath id="a">
			<path
					d="M168.525 279.232c-23.405-.043-46.876-8.44-65.56-25.422-39.964-36.315-42.92-98.16-6.599-138.12 36.322-39.967 98.165-42.92 138.127-6.601 39.962 36.32 42.92 98.161 6.597 138.126-19.246 21.178-45.654 31.962-72.18 32.017z"/>
		</clipPath>
		<clipPath id="c">
			<path
					d="M80.762 188.708c-2.771-54.483 33.174-89.833 83.779-89.833 74.964 0 116.444 68.31 70.031 142.395 32.622-74.016-3.683-120.68-50.536-120.68-38.003 0-67.121 25.498-67.121 72.254 0 67.467 50.579 72.149 79.316 56.295-10.657 9.534-26.739 16.336-45.387 16.336-34.052 0-67.508-26.03-70.082-76.767"/>
		</clipPath>
		<clipPath id="l">
			<path
					d="M151.618 177.031c0-10.295 15.06-24.269 15.06-34.133 0 9.864 15.063 23.838 15.063 34.133 0 8.255-6.805 14.947-15.063 14.947-8.258 0-15.06-6.692-15.06-14.947"/>
		</clipPath>
		<clipPath id="e">
			<path
					d="M193.084 236.709a63.873 63.873 0 01-26.029 5.531 63.84 63.84 0 01-26.229-5.62c-9.601 14.883-26.912 10.801-26.912 10.801 9.143-7.666 6.357-20.992 4.288-27.403-11.509-12.813-18.588-30.136-18.588-49.209 0-15.186 9.751-32.441 11.702-55.563l12.351 10.7s14.787-10.01 43.388-10.01c28.607 0 43.39 10.01 43.39 10.01l12.353-10.7c1.954 23.122 11.701 40.377 11.701 55.563 0 19.293-7.246 36.798-18.992 49.651-2.047 6.567-4.506 19.469 4.425 26.961 0 0-2.173.512-5.405.512-5.873 0-15.245-1.691-21.443-11.224"/>
		</clipPath>
		<clipPath id="g">
			<path
					d="M127.18 108.516c0-4.396 1.826-8.36 4.749-11.198-.041.411-.066.826-.066 1.246 0 6.467 5.067 11.709 11.317 11.709 6.249 0 11.315-5.242 11.315-11.709 0-.123-.015-.244-.018-.367a15.523 15.523 0 013.919 10.319c0 8.622-6.985 15.608-15.607 15.608-8.619 0-15.609-6.986-15.609-15.608"/>
		</clipPath>
		<clipPath id="k">
			<path d="M0 279.233h339.473V0H0z"/>
		</clipPath>
		<radialGradient id="j" gradientTransform="matrix(14.54723 0 0 -14.54723 190.132 110.72)" r="1" cy="0" cx="0" fy="0"
		                fx="0">
			<stop offset="1" stop-color="#565353"/>
		</radialGradient>
		<radialGradient id="h" gradientTransform="matrix(14.54737 0 0 -14.54737 142.788 110.72)" r="1" cy="0" cx="0" fy="0"
		                fx="0">
			<stop offset="1" stop-color="#565353"/>
		</radialGradient>
		<radialGradient id="b" gradientTransform="scale(127.80571 -127.80571) rotate(11.057 8.897 4.247)" r="1" cy="0"
		                cx="0" fy="0" fx="0">
			<stop offset="1" stop-color="#b0aeaf"/>
		</radialGradient>
		<radialGradient id="f" gradientTransform="matrix(76.41132 -87.14402 -92.52952 -81.13354 135.49 208.538)" r="1"
		                cy="0" cx="0" fy="0" fx="0">
			<stop offset=".667" stop-color="#ed1c24"/>
		</radialGradient>
		<radialGradient id="d" gradientTransform="matrix(107.57257 -44.67343 -48.58997 -117.00349 93.83 204.712)" r="1"
		                cy="0" cx="0" fy="0" fx="0">
			<stop offset="1" stop-color="#0a2d49"/>
		</radialGradient>
		<radialGradient id="m" gradientTransform="matrix(3.63757 -18.41156 -18.47398 -3.6499 164.778 180.114)" r="1" cy="0"
		                cx="0" fy="0" fx="0">
			<stop offset="1" stop-color="#565353"/>
		</radialGradient>
	</defs>
	<g clip-path="url(#a)" transform="matrix(1.33333 0 0 -1.33333 -94.595 372.31)">
		<path
				d="M168.525 279.232c-23.405-.043-46.876-8.44-65.56-25.422-39.964-36.315-42.92-98.16-6.599-138.12 36.322-39.967 98.165-42.92 138.127-6.601 39.962 36.32 42.92 98.161 6.597 138.126-19.246 21.178-45.654 31.962-72.18 32.017z"
				fill="url(#b)"/>
	</g>
	<g clip-path="url(#c)" transform="matrix(1.33333 0 0 -1.33333 -94.595 372.31)">
		<path
				d="M80.762 188.708c-2.771-54.483 33.174-89.833 83.779-89.833 74.964 0 116.444 68.31 70.031 142.395 32.622-74.016-3.683-120.68-50.536-120.68-38.003 0-67.121 25.498-67.121 72.254 0 67.467 50.579 72.149 79.316 56.295-10.657 9.534-26.739 16.336-45.387 16.336-34.052 0-67.508-26.03-70.082-76.767"
				fill="url(#d)"/>
	</g>
	<g clip-path="url(#e)" transform="matrix(1.33333 0 0 -1.33333 -94.595 372.31)">
		<path
				d="M193.084 236.709a63.873 63.873 0 01-26.029 5.531 63.84 63.84 0 01-26.229-5.62c-9.601 14.883-26.912 10.801-26.912 10.801 9.143-7.666 6.357-20.992 4.288-27.403-11.509-12.813-18.588-30.136-18.588-49.209 0-15.186 9.751-32.441 11.702-55.563l12.351 10.7s14.787-10.01 43.388-10.01c28.607 0 43.39 10.01 43.39 10.01l12.353-10.7c1.954 23.122 11.701 40.377 11.701 55.563 0 19.293-7.246 36.798-18.992 49.651-2.047 6.567-4.506 19.469 4.425 26.961 0 0-2.173.512-5.405.512-5.873 0-15.245-1.691-21.443-11.224"
				fill="url(#f)"/>
	</g>
	<g clip-path="url(#g)" transform="matrix(1.33333 0 0 -1.33333 -94.595 372.31)">
		<path
				d="M127.18 108.516c0-4.396 1.826-8.36 4.749-11.198-.041.411-.066.826-.066 1.246 0 6.467 5.067 11.709 11.317 11.709 6.249 0 11.315-5.242 11.315-11.709 0-.123-.015-.244-.018-.367a15.523 15.523 0 013.919 10.319c0 8.622-6.985 15.608-15.607 15.608-8.619 0-15.609-6.986-15.609-15.608"
				fill="url(#h)"/>
	</g>
	<g clip-path="url(#i)" transform="matrix(1.33333 0 0 -1.33333 -94.595 372.31)">
		<path
				d="M174.524 108.516c0-3.963 1.487-7.568 3.921-10.319-.006.123-.018.244-.018.367 0 6.467 5.065 11.709 11.317 11.709 6.246 0 11.314-5.242 11.314-11.709 0-.42-.023-.835-.066-1.246 2.924 2.838 4.748 6.802 4.748 11.198 0 8.622-6.985 15.608-15.607 15.608-8.621 0-15.609-6.986-15.609-15.608"
				fill="url(#j)"/>
	</g>
	<g clip-path="url(#k)" transform="matrix(1.33333 0 0 -1.33333 -94.595 372.31)">
		<path
				d="M162.824 194.907c0-14.721-11.934-26.653-26.651-26.653-14.721 0-26.653 11.932-26.653 26.653 0 14.718 11.932 26.648 26.653 26.648 14.717 0 26.65-11.93 26.65-26.648"
				fill="#fff"/>
		<path
				d="M150.02 192.3a8.318 8.318 0 00-8.32-8.316c-4.597 0-8.323 3.723-8.323 8.317a8.32 8.32 0 008.322 8.324 8.32 8.32 0 008.321-8.324"
				fill="#231f20"/>
		<path
				d="M140.508 195.229a2.493 2.493 0 00-4.985 0 2.492 2.492 0 004.985 0m83.592-.322c0-14.721-11.935-26.653-26.654-26.653-14.72 0-26.653 11.932-26.653 26.653 0 14.718 11.934 26.648 26.653 26.648s26.654-11.93 26.654-26.648"
				fill="#fff"/>
		<path
				d="M211.292 192.3a8.317 8.317 0 00-8.317-8.316c-4.598 0-8.325 3.723-8.325 8.317a8.322 8.322 0 008.325 8.324 8.318 8.318 0 008.317-8.324"
				fill="#231f20"/>
		<path d="M201.782 195.229a2.494 2.494 0 00-2.496-2.491 2.49 2.49 0 000 4.982 2.495 2.495 0 002.496-2.491"
		      fill="#fff"/>
	</g>
	<g clip-path="url(#l)" transform="matrix(1.33333 0 0 -1.33333 -94.595 372.31)">
		<path
				d="M151.618 177.031c0-10.295 15.06-24.269 15.06-34.133 0 9.864 15.063 23.838 15.063 34.133 0 8.255-6.805 14.947-15.063 14.947-8.258 0-15.06-6.692-15.06-14.947"
				fill="url(#m)"/>
	</g>
</svg>